<svg width="73" height="73" viewBox="0 0 73 73" fill="none" xmlns="http://www.w3.org/2000/svg">
<path d="M56.023 0.130493H16.0183C5.37262 0.130493 -1.52588e-05 5.29036 -1.52588e-05 15.5106V70.2099C-1.52588e-05 71.5496 0.720633 72.3745 2.27325 72.3745H14.3661C15.8132 72.3745 16.7448 71.5496 16.7448 70.2099V68.1331C16.7448 63.0669 18.8833 60.3056 24.1974 59.7732H56.023C67.6999 59.7732 72.9729 54.7186 72.9729 43.6735V16.2302C72.9729 5.18506 67.6999 0.130493 56.023 0.130493ZM56.2457 39.0284C56.2457 45.019 54.8864 46.2534 47.7502 46.2534H30.8004C23.6701 46.2534 19.1177 48.6286 16.7389 53.2736V19.5356C16.7389 14.8905 17.8756 13.6503 23.5587 13.6503H47.7502C54.8864 13.6503 56.2457 14.8905 56.2457 20.8753V39.0284Z" fill="white"/>
</svg>
